<?xml version="1.0" encoding="UTF-8"?>
<!DOCTYPE svg PUBLIC "-//W3C//DTD SVG 1.1//EN" "http://www.w3.org/Graphics/SVG/1.1/DTD/svg11.dtd">
<svg xmlns="http://www.w3.org/2000/svg" version="1.1" width="1418px" height="517px" style="shape-rendering:geometricPrecision; text-rendering:geometricPrecision; image-rendering:optimizeQuality; fill-rule:evenodd; clip-rule:evenodd" xmlns:xlink="http://www.w3.org/1999/xlink">
<g><path style="opacity:1" fill="#e7552b" d="M 149.5,-0.5 C 182.5,-0.5 215.5,-0.5 248.5,-0.5C 250.568,0.374833 252.568,1.5415 254.5,3C 263.459,17.7507 272.293,32.584 281,47.5C 281.667,48.5 281.667,49.5 281,50.5C 263.414,80.6705 246.08,111.004 229,141.5C 219.241,142.161 209.408,142.494 199.5,142.5C 189.592,142.494 179.759,142.161 170,141.5C 152.414,111.329 135.08,80.9961 118,50.5C 117.743,47.9832 118.41,45.6498 120,43.5C 127.333,30.8333 134.667,18.1667 142,5.5C 144.114,2.87922 146.614,0.879222 149.5,-0.5 Z"/></g>
<g><path style="opacity:0.99" fill="#1e3472" d="M 508.5,53.5 C 528.836,53.3334 549.169,53.5 569.5,54C 571.667,54.8333 573.167,56.3333 574,58.5C 574.5,135.833 574.667,213.166 574.5,290.5C 613.833,290.5 653.167,290.5 692.5,290.5C 692.333,213.166 692.5,135.833 693,58.5C 693.833,56.3333 695.333,54.8333 697.5,54C 717.833,53.3333 738.167,53.3333 758.5,54C 760.286,54.7845 761.786,55.9512 763,57.5C 764.658,135.11 764.991,212.776 764,290.5C 761.486,326.344 742.653,347.844 707.5,355C 658.5,355.667 609.5,355.667 560.5,355C 531.94,349.773 513.44,333.273 505,305.5C 503.35,222.864 503.017,140.197 504,57.5C 505.397,55.9297 506.897,54.5964 508.5,53.5 Z"/></g>
<g><path style="opacity:0.991" fill="#1e3472" d="M 813.5,53.5 C 833.836,53.3334 854.169,53.5 874.5,54C 876.667,54.8333 878.167,56.3333 879,58.5C 879.5,133.833 879.667,209.166 879.5,284.5C 920.501,284.333 961.501,284.5 1002.5,285C 1005.57,285.739 1007.74,287.572 1009,290.5C 1009.67,308.833 1009.67,327.167 1009,345.5C 1008.6,348.232 1007.1,350.065 1004.5,351C 957.5,351.667 910.5,351.667 863.5,351C 832.878,344.711 814.711,326.211 809,295.5C 808.333,216.5 808.333,137.5 809,58.5C 810.025,56.313 811.525,54.6464 813.5,53.5 Z"/></g>
<g><path style="opacity:0.992" fill="#1e3472" d="M 1054.5,53.5 C 1116.17,53.3333 1177.83,53.5 1239.5,54C 1267.93,58.4361 1285.43,74.6027 1292,102.5C 1292.67,122.5 1292.67,142.5 1292,162.5C 1290.76,181.186 1281.6,194.02 1264.5,201C 1285.8,206.299 1297.97,219.799 1301,241.5C 1301.67,261.5 1301.67,281.5 1301,301.5C 1295.09,329.079 1278.25,345.579 1250.5,351C 1184.83,351.667 1119.17,351.667 1053.5,351C 1052.58,350.626 1051.75,350.126 1051,349.5C 1049.34,252.581 1049,155.581 1050,58.5C 1051.02,56.313 1052.52,54.6464 1054.5,53.5 Z M 1118.5,117.5 C 1150.5,117.333 1182.5,117.5 1214.5,118C 1217.94,119.105 1220.44,121.272 1222,124.5C 1222.67,138.167 1222.67,151.833 1222,165.5C 1220.33,169.165 1217.5,171.332 1213.5,172C 1181.84,172.5 1150.17,172.667 1118.5,172.5C 1118.5,154.167 1118.5,135.833 1118.5,117.5 Z M 1118.5,228.5 C 1153.5,228.333 1188.5,228.5 1223.5,229C 1226.94,230.105 1229.44,232.272 1231,235.5C 1231.67,250.5 1231.67,265.5 1231,280.5C 1229.5,283.333 1227.33,285.5 1224.5,287C 1189.22,288.474 1153.88,288.974 1118.5,288.5C 1118.5,268.5 1118.5,248.5 1118.5,228.5 Z"/></g>
<g><path style="opacity:0.986" fill="#1e3472" d="M 1417.5,58.5 C 1417.5,154.5 1417.5,250.5 1417.5,346.5C 1416.4,348.103 1415.07,349.603 1413.5,351C 1392.5,351.667 1371.5,351.667 1350.5,351C 1349.33,349.833 1348.17,348.667 1347,347.5C 1346.33,250.833 1346.33,154.167 1347,57.5C 1348.21,55.9512 1349.71,54.7845 1351.5,54C 1371.83,53.3333 1392.17,53.3333 1412.5,54C 1414.69,55.025 1416.35,56.525 1417.5,58.5 Z"/></g>
<g><path style="opacity:0.999" fill="#e7552b" d="M 289.5,54.5 C 308.17,54.3334 326.836,54.5001 345.5,55C 350.333,57.1667 353.833,60.6667 356,65.5C 369.414,89.3301 383.081,112.997 397,136.5C 401.636,143.997 401.303,151.33 396,158.5C 388.5,171.333 381,184.167 373.5,197C 337.595,197.829 301.762,197.663 266,196.5C 256.7,179.705 247.2,163.038 237.5,146.5C 254.857,115.779 272.191,85.1121 289.5,54.5 Z"/></g>
<g><path style="opacity:0.999" fill="#e7552b" d="M -0.5,152.5 C -0.5,149.167 -0.5,145.833 -0.5,142.5C 15.6808,114.648 32.0141,86.8142 48.5,59C 50.2746,57.5611 52.2746,56.5611 54.5,56C 72.8333,55.3333 91.1667,55.3333 109.5,56C 127.472,86.138 144.805,116.638 161.5,147.5C 152.436,163.959 143.102,180.292 133.5,196.5C 97.5046,197.667 61.5046,197.833 25.5,197C 16.4147,182.318 7.74802,167.484 -0.5,152.5 Z"/></g>
<g><path style="opacity:1" fill="#e7552b" d="M -0.5,261.5 C -0.5,259.833 -0.5,258.167 -0.5,256.5C 8.05874,240.228 17.0587,224.061 26.5,208C 62.1713,207.167 97.838,207.333 133.5,208.5C 143.167,225.167 152.833,241.833 162.5,258.5C 144.414,289.003 126.581,319.669 109,350.5C 91.9072,351.658 74.7405,351.825 57.5,351C 53.9522,350.559 50.9522,349.059 48.5,346.5C 31.6714,318.366 15.3381,290.032 -0.5,261.5 Z"/></g>
<g><path style="opacity:1" fill="#e7552b" d="M 266.5,207.5 C 302.502,207.333 338.502,207.5 374.5,208C 383.126,222.752 391.626,237.585 400,252.5C 400.667,255.833 400.667,259.167 400,262.5C 384.131,291.077 367.631,319.244 350.5,347C 346.433,349.011 342.1,350.011 337.5,350C 321.823,350.833 306.156,350.666 290.5,349.5C 272.898,319.292 255.564,288.959 238.5,258.5C 247.587,241.322 256.921,224.322 266.5,207.5 Z"/></g>
<g><path style="opacity:1" fill="#e7552b" d="M 170.5,263.5 C 190.169,263.333 209.836,263.5 229.5,264C 247.426,294.519 265.093,325.186 282.5,356C 274.097,372.815 264.43,388.815 253.5,404C 251.212,404.822 248.878,405.489 246.5,406C 215.833,406.667 185.167,406.667 154.5,406C 146.87,404.373 141.704,399.873 139,392.5C 131.833,380 124.667,367.5 117.5,355C 135.305,324.554 152.971,294.054 170.5,263.5 Z"/></g>
<g><path style="opacity:0.999" fill="#e6552b" d="M 638.5,455.5 C 641.5,455.5 644.5,455.5 647.5,455.5C 647.334,464.839 647.5,474.173 648,483.5C 652.283,479.095 656.45,474.595 660.5,470C 664.5,469.333 668.5,469.333 672.5,470C 667.833,474.667 663.167,479.333 658.5,484C 663.362,490.696 668.029,497.53 672.5,504.5C 668.833,505.833 665.167,505.833 661.5,504.5C 658.529,499.697 655.362,495.03 652,490.5C 647.803,494.527 646.303,499.527 647.5,505.5C 644.5,505.5 641.5,505.5 638.5,505.5C 638.5,488.833 638.5,472.167 638.5,455.5 Z"/></g>
<g><path style="opacity:1" fill="#e7552b" d="M 1407.5,455.5 C 1410.5,455.5 1413.5,455.5 1416.5,455.5C 1416.5,472.167 1416.5,488.833 1416.5,505.5C 1413.5,505.5 1410.5,505.5 1407.5,505.5C 1407.5,488.833 1407.5,472.167 1407.5,455.5 Z"/></g>
<g><path style="opacity:1" fill="#e7552b" d="M 103.5,456.5 C 106.833,456.5 110.167,456.5 113.5,456.5C 113.5,459.167 113.5,461.833 113.5,464.5C 110.167,464.5 106.833,464.5 103.5,464.5C 103.5,461.833 103.5,459.167 103.5,456.5 Z"/></g>
<g><path style="opacity:1" fill="#e7552a" d="M 537.5,456.5 C 540.833,456.5 544.167,456.5 547.5,456.5C 547.5,459.167 547.5,461.833 547.5,464.5C 544.167,464.5 540.833,464.5 537.5,464.5C 537.5,461.833 537.5,459.167 537.5,456.5 Z"/></g>
<g><path style="opacity:1" fill="#e8552b" d="M 619.5,456.5 C 622.5,456.5 625.5,456.5 628.5,456.5C 628.5,459.167 628.5,461.833 628.5,464.5C 625.5,464.5 622.5,464.5 619.5,464.5C 619.5,461.833 619.5,459.167 619.5,456.5 Z"/></g>
<g><path style="opacity:0.995" fill="#e5542a" d="M 713.5,456.5 C 726.011,456.499 730.845,462.499 728,474.5C 725.76,477.402 722.927,479.569 719.5,481C 721.667,483.167 723.833,485.333 726,487.5C 728.08,485.007 729.914,482.341 731.5,479.5C 733.833,480.667 736.167,481.833 738.5,483C 736.626,486.581 734.626,490.081 732.5,493.5C 734.65,496.151 736.983,498.651 739.5,501C 737.53,503.316 735.196,505.149 732.5,506.5C 730.183,504.684 728.016,502.684 726,500.5C 719.962,505.231 713.129,506.731 705.5,505C 696.237,500.121 694.071,492.954 699,483.5C 700.896,481.47 703.063,479.803 705.5,478.5C 699.723,467.814 702.39,460.481 713.5,456.5 Z M 713.5,464.5 C 719.71,464.041 721.71,466.708 719.5,472.5C 714.763,477.133 712.097,476.133 711.5,469.5C 711.437,467.486 712.103,465.819 713.5,464.5 Z M 710.5,484.5 C 713.797,487.296 716.964,490.296 720,493.5C 718.961,496.489 716.627,498.155 713,498.5C 707.604,497.78 705.271,494.78 706,489.5C 707.193,487.503 708.693,485.836 710.5,484.5 Z"/></g>
<g><path style="opacity:1" fill="#e7552b" d="M 815.5,456.5 C 818.833,456.5 822.167,456.5 825.5,456.5C 825.5,459.167 825.5,461.833 825.5,464.5C 822.167,464.5 818.833,464.5 815.5,464.5C 815.5,461.833 815.5,459.167 815.5,456.5 Z"/></g>
<g><path style="opacity:1" fill="#e7552b" d="M 911.5,456.5 C 914.5,456.5 917.5,456.5 920.5,456.5C 920.5,459.167 920.5,461.833 920.5,464.5C 917.5,464.5 914.5,464.5 911.5,464.5C 911.5,461.833 911.5,459.167 911.5,456.5 Z"/></g>
<g><path style="opacity:1" fill="#e7552b" d="M 1261.5,456.5 C 1264.5,456.5 1267.5,456.5 1270.5,456.5C 1270.5,459.167 1270.5,461.833 1270.5,464.5C 1267.5,464.5 1264.5,464.5 1261.5,464.5C 1261.5,461.833 1261.5,459.167 1261.5,456.5 Z"/></g>
<g><path style="opacity:0.998" fill="#e6542b" d="M 10.5,457.5 C 13.5,457.5 16.5,457.5 19.5,457.5C 19.3335,467.839 19.5002,478.172 20,488.5C 23.6295,497.555 29.7962,499.722 38.5,495C 39.2106,493.745 40.044,492.579 41,491.5C 42.3833,480.221 42.8833,468.888 42.5,457.5C 45.5,457.5 48.5,457.5 51.5,457.5C 51.6665,468.172 51.4998,478.839 51,489.5C 48.9654,500.53 42.2988,506.196 31,506.5C 20.5634,506.383 13.8967,501.383 11,491.5C 10.5001,480.172 10.3335,468.838 10.5,457.5 Z"/></g>
<g><path style="opacity:1" fill="#e7552b" d="M 407.5,457.5 C 410.5,457.5 413.5,457.5 416.5,457.5C 416.5,470.5 416.5,483.5 416.5,496.5C 424.833,496.5 433.167,496.5 441.5,496.5C 441.5,499.5 441.5,502.5 441.5,505.5C 430.167,505.5 418.833,505.5 407.5,505.5C 407.5,489.5 407.5,473.5 407.5,457.5 Z"/></g>
<g><path style="opacity:0.997" fill="#e6552b" d="M 767.5,457.5 C 776.173,457.334 784.84,457.5 793.5,458C 802.672,459.846 806.172,465.346 804,474.5C 803.226,476.939 801.726,478.773 799.5,480C 807.023,484.233 809.189,490.4 806,498.5C 804.062,501.106 801.562,502.939 798.5,504C 788.232,505.399 777.898,505.899 767.5,505.5C 767.5,489.5 767.5,473.5 767.5,457.5 Z M 776.5,465.5 C 782.328,465.05 787.995,465.716 793.5,467.5C 796.611,471.879 795.611,475.045 790.5,477C 785.845,477.499 781.179,477.666 776.5,477.5C 776.5,473.5 776.5,469.5 776.5,465.5 Z M 776.5,485.5 C 782.176,485.334 787.843,485.501 793.5,486C 799.595,489.005 799.928,492.338 794.5,496C 788.577,497.304 782.577,497.804 776.5,497.5C 776.5,493.5 776.5,489.5 776.5,485.5 Z"/></g>
<g><path style="opacity:1" fill="#e65429" d="M 986.5,457.5 C 989.833,457.5 993.167,457.5 996.5,457.5C 996.5,473.5 996.5,489.5 996.5,505.5C 993.167,505.5 989.833,505.5 986.5,505.5C 986.5,489.5 986.5,473.5 986.5,457.5 Z"/></g>
<g><path style="opacity:0.991" fill="#e7552b" d="M 285.5,459.5 C 288.5,459.5 291.5,459.5 294.5,459.5C 294.5,462.833 294.5,466.167 294.5,469.5C 297.833,469.5 301.167,469.5 304.5,469.5C 304.5,472.167 304.5,474.833 304.5,477.5C 301.167,477.5 297.833,477.5 294.5,477.5C 294.334,483.176 294.501,488.843 295,494.5C 297.079,497.661 299.913,498.328 303.5,496.5C 306.039,503.417 303.705,506.417 296.5,505.5C 292.412,506.24 289.245,504.907 287,501.5C 285.637,493.571 285.137,485.571 285.5,477.5C 284.167,477.5 282.833,477.5 281.5,477.5C 281.5,474.833 281.5,472.167 281.5,469.5C 282.833,469.5 284.167,469.5 285.5,469.5C 285.5,466.167 285.5,462.833 285.5,459.5 Z"/></g>
<g><path style="opacity:0.991" fill="#e7552b" d="M 592.5,459.5 C 595.5,459.5 598.5,459.5 601.5,459.5C 601.5,462.833 601.5,466.167 601.5,469.5C 604.833,469.5 608.167,469.5 611.5,469.5C 611.5,472.167 611.5,474.833 611.5,477.5C 608.167,477.5 604.833,477.5 601.5,477.5C 601.334,483.509 601.501,489.509 602,495.5C 604.209,497.706 606.709,498.04 609.5,496.5C 611.972,503.066 609.806,506.066 603,505.5C 597.913,506.294 594.58,504.294 593,499.5C 592.5,492.174 592.334,484.841 592.5,477.5C 591.167,477.5 589.833,477.5 588.5,477.5C 588.5,474.833 588.5,472.167 588.5,469.5C 589.833,469.5 591.167,469.5 592.5,469.5C 592.5,466.167 592.5,462.833 592.5,459.5 Z"/></g>
<g><path style="opacity:0.991" fill="#e6552b" d="M 1050.5,459.5 C 1053.5,459.5 1056.5,459.5 1059.5,459.5C 1059.5,462.833 1059.5,466.167 1059.5,469.5C 1062.83,469.5 1066.17,469.5 1069.5,469.5C 1069.5,472.167 1069.5,474.833 1069.5,477.5C 1066.17,477.5 1062.83,477.5 1059.5,477.5C 1059.33,483.176 1059.5,488.843 1060,494.5C 1062.08,497.661 1064.91,498.328 1068.5,496.5C 1071.04,503.417 1068.71,506.417 1061.5,505.5C 1057.41,506.24 1054.25,504.907 1052,501.5C 1050.64,493.571 1050.14,485.571 1050.5,477.5C 1049.17,477.5 1047.83,477.5 1046.5,477.5C 1046.5,474.833 1046.5,472.167 1046.5,469.5C 1047.83,469.5 1049.17,469.5 1050.5,469.5C 1050.5,466.167 1050.5,462.833 1050.5,459.5 Z"/></g>
<g><path style="opacity:0.671" fill="#e7552a" d="M 264.5,456.5 C 267.833,456.5 271.167,456.5 274.5,456.5C 274.5,459.167 274.5,461.833 274.5,464.5C 271.167,464.5 267.833,464.5 264.5,464.5C 264.5,461.833 264.5,459.167 264.5,456.5 Z"/></g>
<g><path style="opacity:0.998" fill="#e65329" d="M 884.5,468.5 C 891.108,467.115 896.275,469.115 900,474.5C 901.426,484.754 901.926,495.088 901.5,505.5C 898.5,505.5 895.5,505.5 892.5,505.5C 892.666,497.493 892.5,489.493 892,481.5C 888.171,475.297 883.838,474.964 879,480.5C 878.5,488.827 878.334,497.16 878.5,505.5C 875.167,505.5 871.833,505.5 868.5,505.5C 868.5,493.5 868.5,481.5 868.5,469.5C 871.833,469.5 875.167,469.5 878.5,469.5C 878.351,470.552 878.517,471.552 879,472.5C 880.5,470.531 882.333,469.198 884.5,468.5 Z"/></g>
<g><path style="opacity:0.974" fill="#e6542a" d="M 1087.5,468.5 C 1103.13,467.459 1110.46,474.792 1109.5,490.5C 1100.81,490.169 1092.14,490.502 1083.5,491.5C 1088.53,499.65 1094.87,500.65 1102.5,494.5C 1103.7,495.531 1105.03,496.365 1106.5,497C 1107.52,498.049 1107.68,499.216 1107,500.5C 1098.57,507.717 1089.74,508.217 1080.5,502C 1074.01,494.286 1072.84,485.786 1077,476.5C 1079.86,472.789 1083.36,470.123 1087.5,468.5 Z M 1088.5,476.5 C 1094.68,475.252 1098.68,477.585 1100.5,483.5C 1094.83,484.833 1089.17,484.833 1083.5,483.5C 1084.47,480.531 1086.13,478.198 1088.5,476.5 Z"/></g>
<g><path style="opacity:0.994" fill="#e7552b" d="M 76.5,468.5 C 84.1278,467.065 89.6278,469.732 93,476.5C 93.4998,486.161 93.6665,495.828 93.5,505.5C 90.5,505.5 87.5,505.5 84.5,505.5C 84.6664,497.16 84.4997,488.827 84,480.5C 79.1624,474.964 74.8291,475.297 71,481.5C 70.5003,489.493 70.3336,497.493 70.5,505.5C 67.5,505.5 64.5,505.5 61.5,505.5C 61.5,493.5 61.5,481.5 61.5,469.5C 64.5,469.5 67.5,469.5 70.5,469.5C 70.3505,470.552 70.5172,471.552 71,472.5C 72.8121,471.023 74.6455,469.69 76.5,468.5 Z"/></g>
<g><path style="opacity:0.975" fill="#e6552a" d="M 172.5,468.5 C 188.125,467.459 195.459,474.792 194.5,490.5C 185.827,490.334 177.16,490.5 168.5,491C 173.227,499.61 179.56,500.777 187.5,494.5C 188.7,495.531 190.034,496.365 191.5,497C 192.517,498.049 192.684,499.216 192,500.5C 183.569,507.717 174.736,508.217 165.5,502C 159.009,494.286 157.842,485.786 162,476.5C 164.855,472.789 168.355,470.123 172.5,468.5 Z M 173.5,476.5 C 179.679,475.252 183.679,477.585 185.5,483.5C 179.833,484.833 174.167,484.833 168.5,483.5C 169.466,480.531 171.133,478.198 173.5,476.5 Z"/></g>
<g><path style="opacity:1" fill="#e6552b" d="M 218.5,468.5 C 220.167,468.5 221.833,468.5 223.5,468.5C 223.665,471.518 223.498,474.518 223,477.5C 217.52,478.316 213.854,481.316 212,486.5C 211.5,492.825 211.334,499.158 211.5,505.5C 208.5,505.5 205.5,505.5 202.5,505.5C 202.5,493.5 202.5,481.5 202.5,469.5C 205.5,469.5 208.5,469.5 211.5,469.5C 211.343,470.873 211.51,472.207 212,473.5C 213.965,471.45 216.132,469.783 218.5,468.5 Z"/></g>
<g><path style="opacity:0.999" fill="#e5542a" d="M 237.5,468.5 C 244.367,467.437 250.367,469.104 255.5,473.5C 254.586,475.664 253.419,477.664 252,479.5C 248.973,477.878 245.806,476.545 242.5,475.5C 240.435,475.953 238.768,476.953 237.5,478.5C 237.977,479.478 238.643,480.311 239.5,481C 244.167,483 248.833,485 253.5,487C 258.411,494.365 257.078,500.365 249.5,505C 241.287,506.816 233.954,505.149 227.5,500C 228.646,497.856 230.146,496.023 232,494.5C 236.333,497.722 241.167,498.889 246.5,498C 249.129,495.211 248.462,493.211 244.5,492C 238.303,491.324 233.469,488.491 230,483.5C 228.271,476.29 230.771,471.29 237.5,468.5 Z"/></g>
<g><path style="opacity:0.998" fill="#e5542a" d="M 321.5,468.5 C 328.445,467.471 334.612,469.137 340,473.5C 340.862,475.087 341.529,476.754 342,478.5C 342.5,487.494 342.666,496.494 342.5,505.5C 339.5,505.5 336.5,505.5 333.5,505.5C 333.649,504.448 333.483,503.448 333,502.5C 325.17,507.9 317.837,507.233 311,500.5C 308.029,488.786 312.696,482.786 325,482.5C 327.848,482.798 330.681,483.131 333.5,483.5C 333.552,480.048 331.885,477.881 328.5,477C 323.733,476.533 319.067,477.033 314.5,478.5C 314.335,476.173 313.669,474.007 312.5,472C 315.571,470.704 318.571,469.538 321.5,468.5 Z M 324.5,488.5 C 327.784,488.723 330.951,489.39 334,490.5C 333.777,496.057 330.777,499.057 325,499.5C 316.604,496.157 316.437,492.49 324.5,488.5 Z"/></g>
<g><path style="opacity:0.995" fill="#e5542a" d="M 359.5,468.5 C 363.915,468.305 368.249,468.805 372.5,470C 374.555,470.687 376.221,471.854 377.5,473.5C 376.167,475.5 374.833,477.5 373.5,479.5C 370.382,477.607 367.049,476.274 363.5,475.5C 359.968,476.158 358.968,477.992 360.5,481C 364.833,482.667 369.167,484.333 373.5,486C 380.034,491.917 380.034,497.917 373.5,504C 368.254,505.506 362.921,505.839 357.5,505C 354.163,504.335 351.497,502.669 349.5,500C 349.984,497.525 351.317,495.692 353.5,494.5C 357.772,497.427 362.438,498.594 367.5,498C 369.527,496.604 369.86,494.938 368.5,493C 363.261,491.587 358.261,489.587 353.5,487C 348.802,478.594 350.802,472.427 359.5,468.5 Z"/></g>
<g><path style="opacity:0.996" fill="#e6542a" d="M 460.5,468.5 C 479.487,467.984 486.987,476.984 483,495.5C 476.172,505.736 467.006,508.569 455.5,504C 447.375,498.64 444.542,491.14 447,481.5C 449.417,474.915 453.917,470.582 460.5,468.5 Z M 462.5,476.5 C 474.451,477.502 477.951,483.502 473,494.5C 466.354,499.854 460.687,498.854 456,491.5C 453.865,484.45 456.032,479.45 462.5,476.5 Z"/></g>
<g><path style="opacity:0.997" fill="#e5542a" d="M 511.5,516.5 C 509.5,516.5 507.5,516.5 505.5,516.5C 501.424,515.801 497.424,514.467 493.5,512.5C 492.79,509.532 493.623,506.865 496,504.5C 503.817,510.098 511.15,509.765 518,503.5C 519.328,498.193 518.162,497.36 514.5,501C 502.742,504.978 494.909,501.145 491,489.5C 489.843,474.657 496.676,467.824 511.5,469C 514.034,469.516 516.2,470.683 518,472.5C 518.483,471.552 518.649,470.552 518.5,469.5C 521.833,469.5 525.167,469.5 528.5,469.5C 528.838,481.543 528.338,493.543 527,505.5C 523.924,512.274 518.758,515.941 511.5,516.5 Z M 505.5,476.5 C 512.873,475.509 517.54,478.509 519.5,485.5C 516.115,494.78 510.282,496.78 502,491.5C 498.337,485.33 499.504,480.33 505.5,476.5 Z"/></g>
<g><path style="opacity:0.993" fill="#e6542a" d="M 565.5,468.5 C 570.705,468.134 575.705,468.967 580.5,471C 582.509,473.965 582.009,476.798 579,479.5C 576.123,477.489 572.956,476.155 569.5,475.5C 567.336,475.998 565.669,477.164 564.5,479C 569.489,482.257 574.822,484.924 580.5,487C 584.326,491.971 584.493,497.138 581,502.5C 575.539,505.412 569.706,506.245 563.5,505C 560.048,504.108 557.048,502.442 554.5,500C 555.646,497.856 557.146,496.023 559,494.5C 563.333,497.722 568.167,498.889 573.5,498C 576.167,496.333 576.167,494.667 573.5,493C 569.167,491.333 564.833,489.667 560.5,488C 556.286,483.8 555.452,478.966 558,473.5C 560.17,471.177 562.67,469.51 565.5,468.5 Z"/></g>
<g><path style="opacity:0.996" fill="#e4542a" d="M 842.5,468.5 C 846.915,468.305 851.249,468.805 855.5,470C 857.555,470.687 859.221,471.854 860.5,473.5C 859.167,475.5 857.833,477.5 856.5,479.5C 853.382,477.607 850.049,476.274 846.5,475.5C 842.968,476.158 841.968,477.992 843.5,481C 847.833,482.667 852.167,484.333 856.5,486C 863.034,491.917 863.034,497.917 856.5,504C 851.254,505.506 845.921,505.839 840.5,505C 837.163,504.335 834.497,502.669 832.5,500C 832.984,497.525 834.317,495.692 836.5,494.5C 840.772,497.427 845.438,498.594 850.5,498C 853.267,495.101 852.6,493.101 848.5,492C 845.5,491 842.5,490 839.5,489C 831.078,480.844 832.078,474.011 842.5,468.5 Z"/></g>
<g><path style="opacity:0.998" fill="#e6542a" d="M 938.5,468.5 C 945.069,467.859 951.069,469.359 956.5,473C 955.37,475.428 953.87,477.595 952,479.5C 949.123,477.489 945.956,476.155 942.5,475.5C 938.968,476.158 937.968,477.992 939.5,481C 944.331,482.61 948.997,484.61 953.5,487C 957.5,492.333 957.5,497.667 953.5,503C 948.092,505.444 942.426,506.11 936.5,505C 933.048,504.108 930.048,502.442 927.5,500C 928.826,497.842 930.493,496.008 932.5,494.5C 936.682,497.766 941.349,498.933 946.5,498C 949.167,496.333 949.167,494.667 946.5,493C 942.167,491.333 937.833,489.667 933.5,488C 928.784,483.308 928.284,478.141 932,472.5C 934.013,470.752 936.18,469.418 938.5,468.5 Z"/></g>
<g><path style="opacity:0.998" fill="#e7552b" d="M 1022.5,468.5 C 1030.13,467.065 1035.63,469.732 1039,476.5C 1039.5,486.161 1039.67,495.828 1039.5,505.5C 1036.5,505.5 1033.5,505.5 1030.5,505.5C 1030.67,497.16 1030.5,488.827 1030,480.5C 1025.16,474.964 1020.83,475.297 1017,481.5C 1016.5,489.493 1016.33,497.493 1016.5,505.5C 1013.5,505.5 1010.5,505.5 1007.5,505.5C 1007.5,493.5 1007.5,481.5 1007.5,469.5C 1010.5,469.5 1013.5,469.5 1016.5,469.5C 1016.35,470.552 1016.52,471.552 1017,472.5C 1018.81,471.023 1020.65,469.69 1022.5,468.5 Z"/></g>
<g><path style="opacity:0.993" fill="#e7552b" d="M 1133.5,468.5 C 1135.17,468.5 1136.83,468.5 1138.5,468.5C 1138.66,471.518 1138.5,474.518 1138,477.5C 1132.4,478.134 1128.73,481.134 1127,486.5C 1126.5,492.825 1126.33,499.158 1126.5,505.5C 1123.5,505.5 1120.5,505.5 1117.5,505.5C 1117.5,493.5 1117.5,481.5 1117.5,469.5C 1120.5,469.5 1123.5,469.5 1126.5,469.5C 1126.34,470.873 1126.51,472.207 1127,473.5C 1128.97,471.45 1131.13,469.783 1133.5,468.5 Z"/></g>
<g><path style="opacity:0.998" fill="#e6552b" d="M 1160.5,468.5 C 1166.65,467.408 1171.82,469.075 1176,473.5C 1177.43,484.088 1177.93,494.755 1177.5,505.5C 1174.5,505.5 1171.5,505.5 1168.5,505.5C 1168.67,497.16 1168.5,488.827 1168,480.5C 1163.21,474.948 1158.88,475.281 1155,481.5C 1154.5,489.493 1154.33,497.493 1154.5,505.5C 1151.5,505.5 1148.5,505.5 1145.5,505.5C 1145.5,493.5 1145.5,481.5 1145.5,469.5C 1148.5,469.5 1151.5,469.5 1154.5,469.5C 1154.35,470.552 1154.52,471.552 1155,472.5C 1156.81,471.023 1158.65,469.69 1160.5,468.5 Z"/></g>
<g><path style="opacity:0.995" fill="#e5542a" d="M 1196.5,468.5 C 1203.5,467.468 1209.66,469.135 1215,473.5C 1215.67,474.833 1216.33,476.167 1217,477.5C 1217.5,486.827 1217.67,496.161 1217.5,505.5C 1214.5,505.5 1211.5,505.5 1208.5,505.5C 1208.65,504.448 1208.48,503.448 1208,502.5C 1200.75,507.868 1193.75,507.534 1187,501.5C 1182.56,489.401 1186.9,483.068 1200,482.5C 1202.85,482.798 1205.68,483.131 1208.5,483.5C 1208.92,479.749 1207.25,477.582 1203.5,477C 1198.79,476.842 1194.12,477.342 1189.5,478.5C 1188.83,476.181 1188.67,473.847 1189,471.5C 1191.57,470.413 1194.07,469.413 1196.5,468.5 Z M 1199.5,488.5 C 1202.78,488.723 1205.95,489.39 1209,490.5C 1208.84,495.828 1206.01,498.828 1200.5,499.5C 1191.52,496.491 1191.19,492.824 1199.5,488.5 Z"/></g>
<g><path style="opacity:0.995" fill="#e5542a" d="M 1234.5,468.5 C 1238.92,468.305 1243.25,468.805 1247.5,470C 1253.55,472.225 1253.88,475.391 1248.5,479.5C 1245.54,477.681 1242.38,476.347 1239,475.5C 1236.88,475.966 1235.38,477.133 1234.5,479C 1234.64,479.772 1234.98,480.439 1235.5,481C 1239.83,482.667 1244.17,484.333 1248.5,486C 1255.48,493.101 1254.82,499.434 1246.5,505C 1241.83,505.667 1237.17,505.667 1232.5,505C 1229.16,504.335 1226.5,502.669 1224.5,500C 1225.47,497.88 1226.81,496.047 1228.5,494.5C 1233.12,497.826 1238.12,498.826 1243.5,497.5C 1244.75,495.994 1244.75,494.494 1243.5,493C 1238.32,491.455 1233.32,489.455 1228.5,487C 1224.26,478.595 1226.26,472.429 1234.5,468.5 Z"/></g>
<g><path style="opacity:0.997" fill="#e6542a" d="M 1293.5,468.5 C 1310.16,467.325 1317.99,474.991 1317,491.5C 1311.71,505.06 1302.21,509.227 1288.5,504C 1280.16,498.324 1277.33,490.49 1280,480.5C 1282.83,474.493 1287.33,470.493 1293.5,468.5 Z M 1295.5,476.5 C 1307.45,477.502 1310.95,483.502 1306,494.5C 1299.35,499.854 1293.69,498.854 1289,491.5C 1286.88,484.414 1289.05,479.414 1295.5,476.5 Z"/></g>
<g><path style="opacity:0.999" fill="#e6552b" d="M 1340.5,468.5 C 1346.65,467.408 1351.82,469.075 1356,473.5C 1357.43,484.088 1357.93,494.755 1357.5,505.5C 1354.5,505.5 1351.5,505.5 1348.5,505.5C 1348.67,497.16 1348.5,488.827 1348,480.5C 1343.21,474.948 1338.88,475.281 1335,481.5C 1334.5,489.493 1334.33,497.493 1334.5,505.5C 1331.5,505.5 1328.5,505.5 1325.5,505.5C 1325.5,493.5 1325.5,481.5 1325.5,469.5C 1328.5,469.5 1331.5,469.5 1334.5,469.5C 1334.35,470.552 1334.52,471.552 1335,472.5C 1336.81,471.023 1338.65,469.69 1340.5,468.5 Z"/></g>
<g><path style="opacity:0.996" fill="#e5542a" d="M 1376.5,468.5 C 1383.45,467.471 1389.61,469.137 1395,473.5C 1395.67,474.833 1396.33,476.167 1397,477.5C 1397.5,486.827 1397.67,496.161 1397.5,505.5C 1394.5,505.5 1391.5,505.5 1388.5,505.5C 1388.65,504.448 1388.48,503.448 1388,502.5C 1380.75,507.868 1373.75,507.534 1367,501.5C 1362.56,489.401 1366.9,483.068 1380,482.5C 1382.85,482.798 1385.68,483.131 1388.5,483.5C 1388.62,479.893 1386.95,477.727 1383.5,477C 1378.79,476.842 1374.12,477.342 1369.5,478.5C 1368.83,476.181 1368.67,473.847 1369,471.5C 1371.57,470.413 1374.07,469.413 1376.5,468.5 Z M 1379.5,488.5 C 1382.78,488.723 1385.95,489.39 1389,490.5C 1388.84,495.828 1386.01,498.828 1380.5,499.5C 1371.52,496.491 1371.19,492.824 1379.5,488.5 Z"/></g>
<g><path style="opacity:1" fill="#e7552b" d="M 103.5,469.5 C 106.5,469.5 109.5,469.5 112.5,469.5C 112.5,481.5 112.5,493.5 112.5,505.5C 109.5,505.5 106.5,505.5 103.5,505.5C 103.5,493.5 103.5,481.5 103.5,469.5 Z"/></g>
<g><path style="opacity:0.999" fill="#e5542a" d="M 119.5,470.5 C 122.687,469.194 126.02,469.194 129.5,470.5C 132.611,477.722 135.444,485.056 138,492.5C 141.187,485.281 144.187,477.948 147,470.5C 150.125,469.213 153.291,469.213 156.5,470.5C 152.029,481.914 147.362,493.247 142.5,504.5C 139.572,505.484 136.572,505.817 133.5,505.5C 129.208,493.61 124.541,481.943 119.5,470.5 Z"/></g>
<g><path style="opacity:1" fill="#e7552b" d="M 264.5,469.5 C 267.5,469.5 270.5,469.5 273.5,469.5C 273.5,481.5 273.5,493.5 273.5,505.5C 270.5,505.5 267.5,505.5 264.5,505.5C 264.5,493.5 264.5,481.5 264.5,469.5 Z"/></g>
<g><path style="opacity:1" fill="#e7552b" d="M 538.5,469.5 C 541.5,469.5 544.5,469.5 547.5,469.5C 547.5,481.5 547.5,493.5 547.5,505.5C 544.5,505.5 541.5,505.5 538.5,505.5C 538.5,493.5 538.5,481.5 538.5,469.5 Z"/></g>
<g><path style="opacity:1" fill="#e7552b" d="M 619.5,469.5 C 622.5,469.5 625.5,469.5 628.5,469.5C 628.5,481.5 628.5,493.5 628.5,505.5C 625.5,505.5 622.5,505.5 619.5,505.5C 619.5,493.5 619.5,481.5 619.5,469.5 Z"/></g>
<g><path style="opacity:1" fill="#e7552b" d="M 815.5,469.5 C 818.5,469.5 821.5,469.5 824.5,469.5C 824.5,481.5 824.5,493.5 824.5,505.5C 821.5,505.5 818.5,505.5 815.5,505.5C 815.5,493.5 815.5,481.5 815.5,469.5 Z"/></g>
<g><path style="opacity:1" fill="#e7552b" d="M 911.5,469.5 C 914.5,469.5 917.5,469.5 920.5,469.5C 920.5,481.5 920.5,493.5 920.5,505.5C 917.5,505.5 914.5,505.5 911.5,505.5C 911.5,493.5 911.5,481.5 911.5,469.5 Z"/></g>
<g><path style="opacity:1" fill="#e7552b" d="M 1261.5,469.5 C 1264.5,469.5 1267.5,469.5 1270.5,469.5C 1270.5,481.5 1270.5,493.5 1270.5,505.5C 1267.5,505.5 1264.5,505.5 1261.5,505.5C 1261.5,493.5 1261.5,481.5 1261.5,469.5 Z"/></g>
</svg>
